<?xml version="1.0" standalone="no"?>
<!DOCTYPE svg PUBLIC "-//W3C//DTD SVG 20010904//EN"
 "http://www.w3.org/TR/2001/REC-SVG-20010904/DTD/svg10.dtd">
<svg version="1.0" xmlns="http://www.w3.org/2000/svg"
 width="512.000000pt" height="512.000000pt" viewBox="0 0 512.000000 512.000000"
 preserveAspectRatio="xMidYMid meet">

<g transform="translate(0.000000,512.000000) scale(0.100000,-0.100000)"
fill="#E5CFB8" stroke="none">
<path d="M1560 5109 c-729 -57 -1273 -287 -1434 -606 -58 -117 -56 -53 -56
-1448 0 -1418 -4 -1333 66 -1465 187 -357 893 -599 1749 -600 l170 0 51 -108
c80 -166 162 -280 304 -423 134 -134 246 -217 400 -294 323 -162 705 -206
1058 -120 144 35 252 79 289 117 100 103 76 255 -49 319 -51 26 -117 24 -202
-7 -301 -108 -638 -93 -911 43 -317 158 -554 469 -620 817 -22 115 -20 326 4
441 124 595 693 991 1294 900 720 -108 1155 -851 900 -1534 -23 -61 -35 -111
-35 -142 1 -90 59 -163 150 -190 54 -16 119 -1 171 38 59 45 129 228 168 438
26 140 23 399 -5 543 -97 484 -398 883 -831 1097 -146 73 -291 120 -448 145
l-73 12 0 632 c0 528 -2 641 -15 689 -47 182 -196 333 -450 457 -246 121 -505
190 -880 236 -155 18 -601 26 -765 13z m585 -399 c470 -35 877 -157 1052 -314
56 -50 78 -93 69 -130 -10 -39 -117 -129 -212 -179 -449 -231 -1308 -297
-1947 -148 -363 85 -660 258 -633 367 10 37 70 99 143 145 314 198 934 303
1528 259z m-1435 -1068 c189 -70 444 -128 700 -159 181 -22 706 -25 875 -5
367 43 663 117 891 222 48 22 88 40 90 40 2 0 4 -150 4 -334 l0 -333 -86 -17
c-220 -44 -464 -160 -664 -316 -44 -34 -375 -70 -644 -70 -585 0 -1132 136
-1344 334 -63 58 -62 53 -62 415 l0 330 78 -38 c42 -21 115 -52 162 -69z m82
-1216 c331 -109 751 -164 1164 -154 l181 5 -37 -81 c-98 -213 -141 -413 -141
-658 l0 -148 -112 0 c-550 0 -1099 138 -1310 329 -69 62 -67 50 -67 465 l0
375 94 -45 c52 -25 155 -64 228 -88z"/>
<path d="M3452 2118 c-56 -12 -126 -78 -141 -133 -6 -22 -11 -86 -11 -142 l0
-101 -129 -4 c-127 -3 -130 -4 -168 -34 -105 -83 -109 -228 -8 -312 46 -38
107 -52 220 -52 l85 0 0 -97 c0 -121 11 -163 57 -214 85 -94 237 -82 310 24
26 38 28 48 31 162 l4 122 117 5 c137 6 181 24 228 91 24 35 28 50 28 112 0
81 -21 123 -83 166 -32 21 -49 25 -161 29 l-126 5 -5 126 c-5 117 -7 129 -33
166 -48 69 -130 100 -215 81z"/>
</g>
</svg>
