<?xml version="1.0" standalone="no"?>
<!DOCTYPE svg PUBLIC "-//W3C//DTD SVG 20010904//EN"
 "http://www.w3.org/TR/2001/REC-SVG-20010904/DTD/svg10.dtd">
<svg version="1.0" xmlns="http://www.w3.org/2000/svg"
 width="40.000000pt" height="40.000000pt" viewBox="0 0 512.000000 512.000000"
 preserveAspectRatio="xMidYMid meet">

<g transform="translate(0.000000,512.000000) scale(0.100000,-0.100000)"
fill="#7B1B1C" stroke="none">
<path d="M2798 5100 c-23 -12 -46 -36 -58 -60 -20 -39 -20 -57 -20 -1125 0
-1068 0 -1086 20 -1125 13 -26 34 -47 60 -60 39 -20 57 -20 1120 -20 1063 0
1081 0 1120 20 78 40 91 103 70 335 -40 430 -214 862 -488 1210 -31 38 -110
124 -176 190 -400 399 -924 629 -1485 651 -114 4 -130 3 -163 -16z"/>
<path d="M2045 4499 c-248 -24 -539 -108 -775 -225 -368 -182 -669 -446 -896
-785 -279 -417 -412 -940 -363 -1435 75 -779 558 -1474 1264 -1819 331 -162
621 -229 985 -229 271 0 458 28 699 105 118 38 144 51 172 90 46 65 51 48
-344 1105 l-367 981 0 1052 c0 1034 0 1052 -20 1091 -40 78 -111 92 -355 69z"/>
<path d="M2799 2390 c-48 -25 -84 -96 -76 -147 4 -19 174 -485 379 -1036 401
-1074 388 -1045 468 -1067 48 -13 115 7 265 80 589 284 1029 815 1204 1450 45
166 81 408 81 558 0 82 -26 134 -80 162 -39 20 -56 20 -1122 20 -1050 -1
-1084 -1 -1119 -20z"/>
</g>
</svg>
